<?xml version="1.0" encoding="UTF-8"?>
<svg width="21px" height="5px" viewBox="0 0 21 5" version="1.1" xmlns="http://www.w3.org/2000/svg" xmlns:xlink="http://www.w3.org/1999/xlink">
    <title>icon-ellipsis</title>
    <g id="Page-1" stroke="none" stroke-width="1" fill="none" fill-rule="evenodd">
        <g id="icon-ellipsis" fill="#FFFFFF">
            <path d="M2.5,0 C3.9,0 5,1.1 5,2.5 C5,3.9 3.9,5 2.5,5 C1.1,5 0,3.9 0,2.5 C0,1.1 1.1,0 2.5,0 Z M10.5,0 C11.9,0 13,1.1 13,2.5 C13,3.9 11.9,5 10.5,5 C9.1,5 8,3.9 8,2.5 C8,1.1 9.1,0 10.5,0 Z M18.5,0 C19.9,0 21,1.1 21,2.5 C21,3.9 19.9,5 18.5,5 C17.1,5 16,3.9 16,2.5 C16,1.1 17.1,0 18.5,0 Z" id="Shape"></path>
        </g>
    </g>
</svg>